<?xml version="1.0" standalone="no"?>
<!DOCTYPE svg PUBLIC "-//W3C//DTD SVG 20010904//EN"
 "http://www.w3.org/TR/2001/REC-SVG-20010904/DTD/svg10.dtd">
<svg version="1.0" xmlns="http://www.w3.org/2000/svg"
 width="163.000000pt" height="163.000000pt" viewBox="0 0 163.000000 163.000000"
 preserveAspectRatio="xMidYMid meet">
<metadata>
Created by potrace 1.14, written by Peter Selinger 2001-2017
</metadata>
<g transform="translate(0.000000,163.000000) scale(0.100000,-0.100000)"
fill="#000000" stroke="none">
<path d="M700 1623 c-344 -55 -614 -313 -684 -653 -20 -99 -14 -270 13 -365
57 -201 169 -355 341 -470 132 -87 263 -127 425 -129 121 -1 173 5 255 29 268
81 473 294 552 572 29 102 31 304 4 403 -80 294 -290 508 -578 591 -70 19
-261 32 -328 22z"/>
</g>
</svg>
